<svg xmlns="http://www.w3.org/2000/svg" xmlns:xlink="http://www.w3.org/1999/xlink" width="500" height="500" viewBox="0 0 500 500" xml:space="preserve">
<desc>Created with Fabric.js 4.6.0</desc>
<defs>
</defs>
<g transform="matrix(2.19 0 0 2.19 250 250)" id="yIXI-iBBz5bh26LPcMwPe">
<g style="">
		<g transform="matrix(1 0 0 1 0 0)" id="kkNg8s7wwDCkmEw6_q8nL">
<path style="stroke: none; stroke-width: 1; stroke-dasharray: none; stroke-linecap: butt; stroke-dashoffset: 0; stroke-linejoin: miter; stroke-miterlimit: 4; fill: rgb(68,0,153); fill-opacity: 0.05; fill-rule: nonzero; opacity: 1;" transform=" translate(0, 0)" d="M -112.5 -38.584 L -77.8846 58.968 L 66.346 91 L 112.5 -9.463999999999999 L 66.346 -91 z" stroke-linecap="round"></path>
</g>
		<g transform="matrix(1 0 0 1 7.5 -14.51)" id="SrAL-hfErFA1mMOKXLeo_">
<path style="stroke: none; stroke-width: 1; stroke-dasharray: none; stroke-linecap: butt; stroke-dashoffset: 0; stroke-linejoin: miter; stroke-miterlimit: 4; fill: rgb(195,198,201); fill-rule: nonzero; opacity: 1;" transform=" translate(-120, -76.49)" d="M 45 122.975 L 45 33.1062 C 45 31.3913 46.3997 30 48.125 30 L 191.875 30 C 193.6 30 195 31.3913 195 33.1062 L 195 122.975 L 45 122.975 Z M 51.25 116.762 L 188.75 116.762 L 188.75 36.2123 L 51.25 36.2123 L 51.25 116.762 Z" stroke-linecap="round"></path>
</g>
		<g transform="matrix(1 0 0 1 7.5 38.08)" id="ykKuYM3M1YgnsMHnHYy88">
<path style="stroke: none; stroke-width: 1; stroke-dasharray: none; stroke-linecap: butt; stroke-dashoffset: 0; stroke-linejoin: miter; stroke-miterlimit: 4; fill: rgb(195,198,201); fill-rule: nonzero; opacity: 1;" transform=" translate(0, 0)" d="M 71.875 11.2825 L -71.875 11.2825 C -73.6003 11.2825 -75 9.890500000000001 -75 8.1765 L -75 -11.282499999999999 L 75 -11.282499999999999 L 75 8.1765 C 75 9.8945 73.6 11.2825 71.875 11.2825 z M 57.638 -5.2235 C 55.912 -5.2235 54.513 -3.8324999999999996 54.513 -2.1174999999999997 C 54.513 -0.40249999999999964 55.912 0.9885000000000002 57.638 0.9885000000000002 L 59.253 0.9885000000000002 C 60.978 0.9885000000000002 62.378 -0.40249999999999986 62.378 -2.1174999999999997 C 62.378 -3.8324999999999996 60.978 -5.2235 59.253 -5.2235 z" stroke-linecap="round"></path>
</g>
		<g transform="matrix(1 0 0 1 7.5 56.79)" id="_BF58JT5qMnIirNDbmtJd">
<path style="stroke: none; stroke-width: 1; stroke-dasharray: none; stroke-linecap: butt; stroke-dashoffset: 0; stroke-linejoin: miter; stroke-miterlimit: 4; fill: rgb(195,198,201); fill-rule: nonzero; opacity: 1;" transform=" translate(-120, -147.79)" d="M 110.686 133.608 C 108.981 133.353 107.39 134.522 107.134 136.216 C 106.296 141.757 100.542 147.149 95.6063 151.771 C 93.7468 153.515 91.993 155.161 90.4875 156.827 L 90.4793 156.819 C 89.3278 158.097 89.4336 160.059 90.7194 161.207 C 91.3176 161.741 92.0622 162 92.8068 162 L 147.193 162 C 148.918 162 150.318 160.609 150.318 158.894 C 150.318 157.992 149.932 157.179 149.313 156.613 C 147.852 155.019 146.172 153.442 144.39 151.775 C 139.454 147.153 133.7 141.761 132.862 136.22 C 132.606 134.526 131.015 133.357 129.31 133.612 C 88.1234 139.759 151.425 139.691 110.686 133.608 Z" stroke-linecap="round"></path>
</g>
		<g transform="matrix(1 0 0 1 43.88 -8.62)" id="GZKg0glmpB0nuc6Egp5op">
<path style="stroke: none; stroke-width: 1; stroke-dasharray: none; stroke-linecap: butt; stroke-dashoffset: 0; stroke-linejoin: miter; stroke-miterlimit: 4; fill: rgb(68,0,153); fill-rule: evenodd; opacity: 1;" transform=" translate(-156.38, -82.38)" d="M 140.659 66.7522 L 172.1 75.0648 L 149.018 98.0074 L 140.659 66.7522 Z" stroke-linecap="round"></path>
</g>
		<g transform="matrix(1 0 0 1 47.56 -4.96)" id="GvPuHsRd4jT-Fo11aLPsz">
<path style="stroke: none; stroke-width: 1; stroke-dasharray: none; stroke-linecap: butt; stroke-dashoffset: 0; stroke-linejoin: miter; stroke-miterlimit: 4; fill: rgb(68,0,153); fill-rule: nonzero; opacity: 1;" transform=" translate(-160.06, -86.04)" d="M 153.831 73.5522 L 147.493 79.8521 L 166.291 98.5368 L 172.629 92.237 L 153.831 73.5522 Z" stroke-linecap="round"></path>
</g>
		<g transform="matrix(1 0 0 1 32.82 -19.61)" id="0KLDZJGUqaZRHcKwywnwg">
<path style="stroke: none; stroke-width: 1; stroke-dasharray: none; stroke-linecap: butt; stroke-dashoffset: 0; stroke-linejoin: miter; stroke-miterlimit: 4; fill: rgb(68,0,153); fill-rule: nonzero; opacity: 1;" transform=" translate(-145.32, -71.39)" d="M 133.763 59.9015 C 136.971 56.7127 141.174 55.1201 145.377 55.1201 C 149.58 55.1201 153.786 56.7127 156.991 59.9015 C 159.701 62.5958 161.264 65.9964 161.687 69.5065 L 155.768 67.9421 C 155.246 66.406 154.369 64.9618 153.136 63.7364 C 150.994 61.6071 148.187 60.5441 145.38 60.5441 C 142.574 60.5441 139.767 61.6071 137.625 63.7364 C 135.483 65.8658 134.413 68.6555 134.413 71.4452 C 134.413 74.2349 135.483 77.0246 137.625 79.1539 C 138.858 80.3793 140.311 81.2515 141.856 81.7706 L 143.43 87.6537 C 139.899 87.237 136.477 85.6797 133.767 82.9853 C 130.559 79.8037 128.953 75.6262 128.953 71.4452 C 128.953 67.2677 130.559 63.0902 133.763 59.9015 Z" stroke-linecap="round"></path>
</g>
		<g transform="matrix(1.61 0 0 1.61 -20 -13.51)" id="Z6VGo9qFIlku8I5zEr283">
<path style="stroke: none; stroke-width: 1; stroke-dasharray: none; stroke-linecap: butt; stroke-dashoffset: 0; stroke-linejoin: miter; stroke-miterlimit: 4; fill: rgb(68,0,153); fill-rule: nonzero; opacity: 1;" transform=" translate(-16, -16.5)" d="M 28 13 L 29 13 C 29.6 13 30 12.6 30 12 C 30 11.4 29.6 11 29 11 L 26.2 11 L 25 8 C 24.2 6.2 22.4 5 20.4 5 L 11.7 5 C 9.6 5 7.8 6.2 7 8 L 5.7 11 L 3 11 C 2.4 11 2 11.4 2 12 C 2 12.6 2.4 13 3 13 L 4 13 C 2.8 13.9 2 15.4 2 17 L 2 21 C 2 21.9 2.4 22.7 3 23.2 L 3 25 C 3 26.7 4.3 28 6 28 L 8 28 C 9.7 28 11 26.7 11 25 L 11 24 L 21 24 L 21 25 C 21 26.7 22.3 28 24 28 L 26 28 C 27.7 28 29 26.7 29 25 L 29 23.2 C 29.6 22.7 30 21.9 30 21 L 30 17 C 30 15.4 29.2 13.9 28 13 z M 27 18 C 27 18.6 26.6 19 26 19 L 23 19 C 22.4 19 22 18.6 22 18 C 22 17.4 22.4 17 23 17 L 26 17 C 26.6 17 27 17.4 27 18 z M 6 17 L 9 17 C 9.6 17 10 17.4 10 18 C 10 18.6 9.6 19 9 19 L 6 19 C 5.4 19 5 18.6 5 18 C 5 17.4 5.4 17 6 17 z M 10.4 22 L 11.6 19.7 C 12.1 18.7 13.1 18 14.3 18 L 17.8 18 C 18.900000000000002 18 20 18.6 20.5 19.7 L 21.7 22 L 10.4 22 z M 8.9 8.8 C 9.4 7.7 10.4 7 11.6 7 L 20.299999999999997 7 C 21.499999999999996 7 22.599999999999998 7.7 23.099999999999998 8.8 L 24.499999999999996 12 L 7.4999999999999964 12 L 8.9 8.8 z" stroke-linecap="round"></path>
</g>
</g>
</g>
</svg>