<svg xmlns="http://www.w3.org/2000/svg" xmlns:xlink="http://www.w3.org/1999/xlink" width="500" height="500" viewBox="0 0 500 500" xml:space="preserve">
<desc>Created with Fabric.js 4.6.0</desc>
<defs>
</defs>
<g transform="matrix(2.2 0 0 2.2 250 250)" id="mJ9Od1jl6MYvWgv1_hqbZ">
<g style="">
		<g transform="matrix(0.99 0 0 1 0 0)" id="8DKkf_-DmeEJP8n9-UO4y">
<path style="stroke: none; stroke-width: 1; stroke-dasharray: none; stroke-linecap: butt; stroke-dashoffset: 0; stroke-linejoin: miter; stroke-miterlimit: 4; fill: rgb(68,0,153); fill-opacity: 0.05; fill-rule: nonzero; opacity: 1;" transform=" translate(0, 0)" d="M 113.32065 6.99055 L 62.31565 -83.08195 L -85.28465 -89.62155000000001 L -113.32065 17.323549999999983 L -53.72885 89.62154999999998 z" stroke-linecap="round"></path>
</g>
		<g transform="matrix(0.99 0 0 1 -3.08 -54.08)" id="AzWGGQQR957x1fLuJxO0t" clip-path="url(#CLIPPATH_5)">
<clipPath id="CLIPPATH_5">
	<rect transform="matrix(1 0 0 1 0 49.41)" id="clip0_519:163" x="-84.5" y="-62.5" rx="0" ry="0" width="169" height="125"></rect>
</clipPath>
<path style="stroke: none; stroke-width: 1; stroke-dasharray: none; stroke-linecap: butt; stroke-dashoffset: 0; stroke-linejoin: miter; stroke-miterlimit: 4; fill: rgb(68,0,153); fill-rule: nonzero; opacity: 1;" transform=" translate(-126.5, -67.09)" d="M 42.0001 80.1752 L 42.0001 57.5367 C 42.0001 55.5841 43.5772 54 45.521 54 L 207.479 54 C 209.423 54 211 55.5841 211 57.5367 L 211 80.1752 L 42.0001 80.1752 Z M 154.974 63.5509 C 153.03 63.5509 151.453 65.1351 151.453 67.0876 C 151.453 69.0402 153.03 70.6243 154.974 70.6243 L 156.794 70.6243 C 158.738 70.6243 160.315 69.0402 160.315 67.0876 C 160.315 65.1351 158.738 63.5509 156.794 63.5509 L 154.974 63.5509 Z M 173.206 63.5509 C 171.262 63.5509 169.685 65.1351 169.685 67.0876 C 169.685 69.0402 171.262 70.6243 173.206 70.6243 L 175.026 70.6243 C 176.97 70.6243 178.547 69.0402 178.547 67.0876 C 178.547 65.1351 176.97 63.5509 175.026 63.5509 L 173.206 63.5509 Z M 191.438 63.5509 C 189.495 63.5509 187.918 65.1351 187.918 67.0876 C 187.918 69.0402 189.495 70.6243 191.438 70.6243 L 193.258 70.6243 C 195.202 70.6243 196.779 69.0402 196.779 67.0876 C 196.779 65.1351 195.202 63.5509 193.258 63.5509 L 191.438 63.5509 Z" stroke-linecap="round"></path>
</g>
		<g transform="matrix(0.99 0 0 1 -3.08 10.19)" id="vdBhyP-A9DM6MYlBjqJl-" clip-path="url(#CLIPPATH_6)">
<clipPath id="CLIPPATH_6">
	<rect transform="matrix(1 0 0 1 0 -14.86)" id="clip0_519:163" x="-84.5" y="-62.5" rx="0" ry="0" width="169" height="125"></rect>
</clipPath>
<path style="stroke: none; stroke-width: 1; stroke-dasharray: none; stroke-linecap: butt; stroke-dashoffset: 0; stroke-linejoin: miter; stroke-miterlimit: 4; fill: rgb(211,214,217); fill-rule: evenodd; opacity: 1;" transform=" translate(-126.5, -131.36)" d="M 211 175.463 L 211 83.7119 L 42.0001 83.7119 L 42.0001 175.468 C 42.0001 177.42 43.5772 179.005 45.521 179.005 L 207.479 179.005 C 209.423 179 211 177.42 211 175.463 Z" stroke-linecap="round"></path>
</g>
		<g transform="matrix(0.99 0 0 1 0 5.28)" id="coNbJO0ptSbuj9XloOcEb" clip-path="url(#CLIPPATH_7)">
<clipPath id="CLIPPATH_7">
	<rect transform="matrix(1 0 0 1 -3.11 -9.95)" id="clip0_519:163" x="-84.5" y="-62.5" rx="0" ry="0" width="169" height="125"></rect>
</clipPath>
<path style="stroke: none; stroke-width: 1; stroke-dasharray: none; stroke-linecap: butt; stroke-dashoffset: 0; stroke-linejoin: miter; stroke-miterlimit: 4; fill: rgb(68,0,153); fill-rule: evenodd; opacity: 1;" transform=" translate(-129.61, -126.45)" d="M 129.613 97.9829 C 145.264 97.9829 157.954 110.73 157.954 126.451 C 157.954 142.173 145.264 154.92 129.613 154.92 C 113.962 154.92 101.272 142.173 101.272 126.451 C 101.272 110.73 113.962 97.9829 129.613 97.9829 Z M 128.513 135.523 C 127.834 135.196 127.215 134.667 126.67 133.939 C 126.12 133.212 125.739 132.341 125.542 131.333 L 120.632 131.862 C 121.013 134.345 121.87 136.265 123.227 137.619 C 124.579 138.977 126.344 139.792 128.517 140.055 L 128.517 143.499 L 131.24 143.499 L 131.24 139.967 C 133.684 139.613 135.6 138.659 136.971 137.094 C 138.337 135.533 139.025 133.612 139.025 131.337 C 139.025 129.293 138.479 127.626 137.388 126.323 C 136.302 125.019 134.248 123.956 131.24 123.136 L 131.24 115.754 C 132.46 116.283 133.212 117.287 133.501 118.779 L 138.259 118.153 C 137.934 116.265 137.182 114.755 136.008 113.626 C 134.825 112.498 133.239 111.821 131.245 111.577 L 131.245 109.707 L 128.522 109.707 L 128.522 111.577 C 126.367 111.798 124.639 112.604 123.337 114.009 C 122.04 115.413 121.393 117.149 121.393 119.212 C 121.393 121.248 121.971 122.984 123.112 124.416 C 124.263 125.848 126.065 126.912 128.522 127.621 L 128.522 135.523 L 128.513 135.523 Z M 128.513 115.694 C 127.77 115.947 127.183 116.376 126.743 116.979 C 126.308 117.587 126.088 118.254 126.088 118.982 C 126.088 119.645 126.285 120.271 126.684 120.838 C 127.087 121.414 127.697 121.874 128.513 122.229 L 128.513 115.694 Z M 131.236 135.791 C 132.18 135.616 132.941 135.178 133.533 134.483 C 134.124 133.778 134.417 132.963 134.417 132.014 C 134.417 131.172 134.165 130.449 133.675 129.836 C 133.18 129.224 132.364 128.754 131.236 128.432 L 131.236 135.791 Z M 129.613 100.967 C 122.608 100.967 116.268 103.818 111.674 108.432 C 107.085 113.041 104.243 119.415 104.243 126.451 C 104.243 133.488 107.081 139.857 111.674 144.471 C 116.263 149.081 122.608 151.936 129.613 151.936 C 136.618 151.936 142.958 149.085 147.552 144.471 C 152.141 139.861 154.983 133.488 154.983 126.451 C 154.983 119.415 152.145 113.046 147.552 108.432 C 142.963 103.822 136.618 100.967 129.613 100.967 Z M 146.772 109.215 C 142.381 104.803 136.315 102.077 129.613 102.077 C 122.911 102.077 116.845 104.808 112.453 109.215 C 108.062 113.626 105.348 119.719 105.348 126.451 C 105.348 133.184 108.066 139.277 112.453 143.688 C 116.845 148.1 122.911 150.826 129.613 150.826 C 136.315 150.826 142.381 148.095 146.772 143.688 C 151.164 139.277 153.878 133.184 153.878 126.451 C 153.883 119.719 151.164 113.626 146.772 109.215 Z" stroke-linecap="round"></path>
</g>
</g>
</g>
</svg>