<svg width="110" height="32" viewBox="0 0 110 32" fill="none" xmlns="http://www.w3.org/2000/svg">
<g clip-path="url(#clip0_156_6244)">
<path d="M52.4194 3.15588L48.0463 13.4474H44.9454L40.5935 3.15588H43.6944L46.5648 10.1573L49.5278 3.15588H52.4194Z" fill="#410099"/>
<path d="M63.8796 3.15589V13.4474H61.0092V12.2612C60.2648 13.1544 59.1876 13.6006 57.7777 13.6C56.8531 13.6132 55.9407 13.3893 55.1286 12.9499C54.343 12.5209 53.698 11.8768 53.2703 11.0943C52.8185 10.2906 52.5925 9.35972 52.5925 8.30164C52.5925 7.24355 52.8172 6.31267 53.2666 5.509C53.6946 4.72668 54.3395 4.08268 55.1249 3.65336C55.9382 3.21381 56.8519 2.9899 57.7777 3.00325C59.0999 3.00325 60.1336 3.41765 60.8786 4.24647V3.15589H63.8796ZM60.1851 10.377C60.6864 9.86026 60.9367 9.16846 60.9361 8.30164C60.9354 7.43482 60.6851 6.74302 60.1851 6.22624C59.9427 5.97285 59.6494 5.7729 59.3241 5.63936C58.9989 5.50582 58.649 5.44167 58.2972 5.45106C57.5268 5.45106 56.8913 5.70946 56.3907 6.22624C55.8901 6.74302 55.6394 7.43482 55.6388 8.30164C55.6388 9.16907 55.8894 9.86087 56.3907 10.377C56.8919 10.8932 57.5274 11.1516 58.2972 11.1522C58.649 11.1616 58.9989 11.0975 59.3241 10.9639C59.6494 10.8304 59.9427 10.6304 60.1851 10.377Z" fill="#410099"/>
<path d="M83.0158 4.13801C83.78 4.89755 84.1621 6.03594 84.1621 7.55319V13.4447H81.1565V8.0148C81.1565 7.19886 80.9865 6.58981 80.6464 6.18767C80.3062 5.78552 79.8217 5.58476 79.1927 5.58537C78.4865 5.58537 77.9278 5.81188 77.5167 6.26491C77.1056 6.71794 76.9001 7.39043 76.9001 8.28238V13.4474H73.8954V8.0148C73.8954 6.39579 73.2405 5.58598 71.9306 5.58537C71.2368 5.58537 70.6846 5.81188 70.2741 6.26491C69.8636 6.71794 69.6581 7.39043 69.6575 8.28238V13.4474H66.6528V3.15594H69.5232V4.34215C69.9115 3.90646 70.396 3.56592 70.9389 3.34721C71.5231 3.11318 72.148 2.9963 72.7778 3.0033C73.4638 2.99313 74.1429 3.1404 74.7621 3.43365C75.3446 3.7139 75.8378 4.1486 76.1871 4.68974C76.614 4.15218 77.1659 3.72556 77.7954 3.44652C78.465 3.14893 79.1915 2.99898 79.9251 3.00698C81.222 3.00453 82.2522 3.38154 83.0158 4.13801Z" fill="#410099"/>
<path d="M88.9677 12.9215C88.1255 12.4937 87.4201 11.8412 86.9307 11.0373C86.4381 10.2099 86.1864 9.26281 86.2038 8.30169C86.1883 7.34006 86.4418 6.39301 86.9363 5.56605C87.4259 4.76232 88.1313 4.1099 88.9733 3.68192C89.8375 3.2295 90.8165 3.0033 91.9103 3.0033C93.0042 3.0033 93.9801 3.2295 94.8381 3.68192C95.6711 4.11403 96.368 4.76599 96.852 5.56605C97.3464 6.39301 97.6 7.34006 97.5844 8.30169C97.5996 9.2624 97.3461 10.2085 96.852 11.0346C96.366 11.836 95.6661 12.4881 94.8298 12.9187C93.9699 13.3711 92.994 13.5973 91.902 13.5973C90.81 13.5973 89.8319 13.372 88.9677 12.9215ZM93.802 10.3771C94.2958 9.86031 94.5427 9.16851 94.5427 8.30169C94.5427 7.43487 94.2958 6.74307 93.802 6.22628C93.3082 5.7095 92.6758 5.45111 91.9048 5.45111C91.1338 5.45111 90.4989 5.7095 90.0001 6.22628C89.4989 6.74307 89.2483 7.43487 89.2483 8.30169C89.2483 9.16851 89.4989 9.86031 90.0001 10.3771C90.5001 10.8939 91.1356 11.1523 91.9066 11.1523C92.6776 11.1523 93.3094 10.8939 93.802 10.3771Z" fill="#410099"/>
<path d="M100.556 13.2846C99.7339 13.0744 99.079 12.8098 98.5907 12.4911L99.5925 10.3485C100.113 10.6671 100.678 10.9087 101.268 11.0658C101.894 11.246 102.543 11.3388 103.194 11.3416C104.466 11.3416 105.102 11.029 105.102 10.4037C105.102 10.1107 104.928 9.90042 104.581 9.77291C104.235 9.6454 103.702 9.53689 102.982 9.44739C102.273 9.34961 101.572 9.20273 100.883 9.00785C100.335 8.8447 99.8404 8.5412 99.4481 8.12785C99.0438 7.7067 98.8416 7.10716 98.8416 6.32923C98.8316 5.70572 99.0306 5.0966 99.4074 4.59773C99.7851 4.09382 100.337 3.70149 101.064 3.42072C101.79 3.13995 102.647 2.99988 103.635 3.00049C104.37 3.00106 105.103 3.08123 105.821 3.23957C106.453 3.36415 107.06 3.58664 107.622 3.89888L106.62 6.02302C105.71 5.51282 104.681 5.2487 103.635 5.25704C102.993 5.25704 102.511 5.34654 102.19 5.52555C101.869 5.70455 101.708 5.93413 101.708 6.21428C101.708 6.53245 101.882 6.75559 102.229 6.88371C102.576 7.01183 103.128 7.13444 103.885 7.25153C104.587 7.35989 105.282 7.51005 105.966 7.70118C106.504 7.86045 106.99 8.16095 107.371 8.57107C107.769 8.99222 107.969 9.57888 107.969 10.3311C107.976 10.9471 107.772 11.5473 107.391 12.0331C107.006 12.5303 106.444 12.9162 105.706 13.1908C104.967 13.4655 104.091 13.6025 103.076 13.6019C102.226 13.6023 101.379 13.4957 100.556 13.2846Z" fill="#410099"/>
<path d="M48.3574 20.1288C49.0427 20.5062 49.6062 21.069 49.9824 21.7518C50.3839 22.4846 50.5868 23.3084 50.5712 24.1426C50.5712 25.0474 50.3749 25.8489 49.9824 26.5472C49.608 27.2285 49.0477 27.791 48.3657 28.1701C47.654 28.5606 46.8518 28.7591 46.0388 28.7458C45.3459 28.7561 44.6607 28.6 44.0416 28.2906C43.4437 27.9838 42.939 27.5242 42.5796 26.9591V31.9927H41.3518V19.6221H42.5277V21.4088C42.8812 20.8279 43.3864 20.3529 43.9898 20.0341C44.622 19.7073 45.3262 19.542 46.0388 19.5531C46.8488 19.5425 47.6477 19.7408 48.3574 20.1288ZM47.6851 27.223C48.2027 26.9318 48.6257 26.4998 48.9046 25.978C49.2051 25.4116 49.3567 24.779 49.3453 24.1389C49.3573 23.5016 49.2056 22.8719 48.9046 22.309C48.6225 21.7898 48.2002 21.3589 47.6851 21.0649C47.1549 20.7718 46.5582 20.6179 45.9513 20.6179C45.3445 20.6179 44.7478 20.7718 44.2175 21.0649C43.7058 21.3608 43.2866 21.7918 43.0064 22.3099C42.7054 22.8728 42.5538 23.5026 42.5657 24.1398C42.5543 24.7799 42.7059 25.4125 43.0064 25.9789C43.2835 26.4993 43.7034 26.931 44.2175 27.2239C44.7497 27.5112 45.3457 27.6616 45.9513 27.6616C46.557 27.6616 47.153 27.5112 47.6851 27.2239V27.223Z" fill="#410099"/>
<path d="M60.9482 19.6221V28.6575H59.7723V26.8709C59.4227 27.4587 58.9173 27.94 58.3112 28.2621C57.6788 28.5893 56.9742 28.7546 56.2612 28.7431C55.4514 28.7533 54.6531 28.5519 53.9464 28.1592C53.2592 27.7778 52.6939 27.2122 52.3149 26.527C51.9286 25.7896 51.7269 24.9706 51.7269 24.1394C51.7269 23.3082 51.9286 22.4892 52.3149 21.7518C52.6914 21.069 53.2552 20.5062 53.9408 20.1288C54.6492 19.7412 55.4469 19.5428 56.2556 19.5532C56.9488 19.5433 57.6342 19.6995 58.2538 20.0083C58.8539 20.3144 59.3609 20.7741 59.7223 21.3398V19.6221H60.9482ZM58.0862 27.2231C58.6 26.9301 59.0197 26.4983 59.2964 25.978C59.5871 25.4079 59.7385 24.7779 59.7385 24.1389C59.7385 23.4999 59.5871 22.8699 59.2964 22.2998C59.0195 21.7803 58.5998 21.3495 58.0862 21.0575C57.556 20.7705 56.9618 20.6202 56.3579 20.6202C55.7541 20.6202 55.1599 20.7705 54.6297 21.0575C54.1156 21.3505 53.6956 21.7822 53.4186 22.3026C53.1285 22.8728 52.9773 23.5028 52.9773 24.1417C52.9773 24.7806 53.1285 25.4105 53.4186 25.9808C53.6963 26.4999 54.1162 26.9306 54.6297 27.2231C55.1602 27.5105 55.755 27.6612 56.3593 27.6612C56.9637 27.6612 57.5584 27.5105 58.089 27.2231H58.0862Z" fill="#410099"/>
<path d="M66.4056 20.0175C66.976 19.7073 67.6822 19.5525 68.5241 19.5531V20.7384L68.2297 20.7218C67.2729 20.7218 66.5235 21.0136 65.9815 21.5972C65.4396 22.1808 65.1686 22.9995 65.1686 24.0533V28.6575H63.9408V19.6221H65.1167V21.3913C65.3842 20.8061 65.8368 20.3238 66.4056 20.0175Z" fill="#410099"/>
<path d="M71.574 28.1591C70.8748 27.778 70.2973 27.2096 69.9074 26.5186C69.5105 25.7892 69.3027 24.9731 69.3027 24.1439C69.3027 23.3148 69.5105 22.4987 69.9074 21.7692C70.2997 21.0824 70.8768 20.5175 71.574 20.1379C72.3146 19.7411 73.1456 19.54 73.987 19.554C74.7134 19.5418 75.4327 19.6976 76.0879 20.0092C76.6948 20.3032 77.2027 20.7657 77.55 21.3407L76.6333 21.9595C76.351 21.5284 75.9565 21.1811 75.4916 20.9545C75.0228 20.7292 74.5079 20.6143 73.987 20.6189C73.3685 20.6099 72.7584 20.7611 72.2166 21.0575C71.6949 21.346 71.2684 21.7784 70.9889 22.3025C70.699 22.874 70.5481 23.505 70.5481 24.1448C70.5481 24.7847 70.699 25.4157 70.9889 25.9871C71.2706 26.5075 71.6967 26.9368 72.2166 27.2239C72.7595 27.5201 73.3705 27.6709 73.9898 27.6616C74.5097 27.6666 75.024 27.555 75.4944 27.3352C75.9602 27.1142 76.3553 26.7695 76.6361 26.3393L77.5527 26.9572C77.2037 27.5339 76.6926 27.9966 76.0824 28.2887C75.4296 28.5989 74.7133 28.7547 73.9898 28.7439C73.1473 28.7582 72.3154 28.5567 71.574 28.1591Z" fill="#410099"/>
<path d="M84.8258 27.36C85.297 27.1651 85.7149 26.8619 86.0452 26.4754L86.7369 27.2662C86.3325 27.7494 85.8162 28.1281 85.2323 28.3697C84.513 28.6516 83.7416 28.7783 82.9692 28.7414C82.1969 28.7044 81.4413 28.5047 80.7526 28.1554C80.0439 27.7772 79.4564 27.2088 79.0572 26.515C78.6472 25.7921 78.4382 24.9739 78.4517 24.1444C78.4382 23.318 78.6377 22.502 79.0313 21.7738C79.4006 21.091 79.9548 20.5244 80.6313 20.138C81.337 19.7426 82.136 19.5411 82.9461 19.5541C83.7116 19.5443 84.4661 19.7346 85.1341 20.1058C85.7811 20.4684 86.3186 20.9964 86.6906 21.635C87.0844 22.3147 87.2958 23.0835 87.3045 23.8676L79.8332 25.3104C80.0412 26.0109 80.4846 26.6194 81.0897 27.0345C81.6952 27.4532 82.4187 27.6623 83.26 27.6616C83.7971 27.6668 84.3296 27.5642 84.8258 27.36ZM81.2452 21.0391C80.7463 21.3286 80.339 21.751 80.0693 22.2584C79.7789 22.8121 79.6331 23.4292 79.6452 24.0534C79.6426 24.1796 79.6485 24.3058 79.6628 24.4313L86.0795 23.1945C85.9583 22.4706 85.5851 21.8119 85.0248 21.3334C84.4594 20.8429 83.7674 20.5977 82.9489 20.5977C82.3513 20.5895 81.7626 20.742 81.2452 21.0391Z" fill="#410099"/>
<path d="M90.049 28.0561C89.6046 27.5982 89.3827 26.9625 89.3833 26.149V15.9081H90.6111V26.046C90.6111 26.5849 90.7379 26.9944 90.9916 27.2745C91.2453 27.5547 91.6259 27.6951 92.1333 27.6957C92.4191 27.7037 92.7033 27.6507 92.9666 27.5403L93.0537 28.5518C92.6969 28.6772 92.3211 28.741 91.9426 28.7403C91.124 28.7421 90.4929 28.5141 90.049 28.0561Z" fill="#410099"/>
<path d="M102.424 19.6221V28.6575H101.248V26.8709C100.898 27.4587 100.393 27.94 99.787 28.2621C99.1546 28.5893 98.45 28.7546 97.737 28.7431C96.9272 28.7533 96.1289 28.5519 95.4222 28.1592C94.737 27.7769 94.1737 27.2114 93.7962 26.527C93.4099 25.7896 93.2083 24.9706 93.2083 24.1394C93.2083 23.3082 93.4099 22.4892 93.7962 21.7518C94.1727 21.069 94.7365 20.5062 95.4222 20.1288C96.1306 19.7412 96.9282 19.5428 97.737 19.5532C98.4302 19.5433 99.1155 19.6995 99.7351 20.0083C100.333 20.3155 100.837 20.7751 101.196 21.3398V19.6221H102.424ZM99.562 27.2231C100.076 26.9301 100.495 26.4983 100.772 25.978C101.063 25.4079 101.214 24.7779 101.214 24.1389C101.214 23.4999 101.063 22.8699 100.772 22.2998C100.495 21.7803 100.076 21.3495 99.562 21.0575C99.0314 20.7701 98.4367 20.6194 97.8323 20.6194C97.228 20.6194 96.6332 20.7701 96.1027 21.0575C95.5886 21.3505 95.1686 21.7822 94.8916 22.3026C94.6015 22.8728 94.4503 23.5028 94.4503 24.1417C94.4503 24.7806 94.6015 25.4105 94.8916 25.9808C95.1689 26.501 95.5888 26.9326 96.1027 27.2258C96.6332 27.5133 97.228 27.6639 97.8323 27.6639C98.4367 27.6639 99.0314 27.5133 99.562 27.2258V27.2231Z" fill="#410099"/>
<path d="M107.882 20.0175C108.452 19.7073 109.158 19.5525 110 19.5531V20.7384L109.706 20.7218C108.749 20.7218 108 21.0136 107.458 21.5972C106.915 22.1808 106.644 22.9995 106.645 24.0533V28.6575H105.417V19.6221H106.593V21.3913C106.86 20.8061 107.313 20.3238 107.882 20.0175Z" fill="#410099"/>
<path d="M9.78889 3.63863V26.7651L9.58982 26.892C6.82778 28.6639 5.70093 29.383 5.24352 29.6791L4.92778 29.8851L4.91575 29.8933L4.90649 29.8998L4.88519 29.9117C4.38363 30.1873 3.81829 30.3281 3.24513 30.32C2.67198 30.312 2.11087 30.1554 1.61735 29.8659C1.12383 29.5763 0.715006 29.1638 0.431335 28.6691C0.147664 28.1744 -0.00101809 27.6148 5.24699e-06 27.0455V3.28369C0.015056 2.42654 0.368459 1.60954 0.984117 1.00862C1.59977 0.407699 2.42844 0.0709244 3.29167 0.0708136C3.75298 0.0695158 4.20921 0.166404 4.62964 0.354952C4.82817 0.442259 5.01687 0.550137 5.1926 0.676791L5.20464 0.683228C5.24908 0.715412 5.29723 0.751274 5.34167 0.786217H5.34723L9.78889 3.63863Z" fill="#10CFC9"/>
<path d="M34.8519 15.2092C34.8524 15.7317 34.7265 16.2467 34.4848 16.7107C34.2431 17.1748 33.8927 17.5744 33.463 17.8759L33.2278 18.023C19.4769 26.8276 15.9408 29.0934 15.0325 29.6764L14.7167 29.8851L14.7047 29.8934L14.6954 29.8998L14.6751 29.9118C14.1738 30.1871 13.6088 30.3278 13.036 30.3199C12.4632 30.3121 11.9024 30.1559 11.409 29.8669C10.9155 29.5779 10.5066 29.1661 10.2224 28.6721C9.93833 28.1781 9.78891 27.6191 9.78894 27.0502V26.7697C11.1565 25.8971 12.9019 24.7752 15.1426 23.3435C17.3834 21.9118 20.1112 20.1637 23.4389 18.0304L23.6713 17.8823C24.1186 17.568 24.4797 17.1477 24.7221 16.6597C24.9645 16.1717 25.0805 15.6314 25.0595 15.0876C25.0385 14.5439 24.8813 14.0139 24.6021 13.5458C24.3228 13.0776 23.9303 12.686 23.4602 12.4065L9.78894 3.64327V3.28833C9.80399 2.43118 10.1574 1.61418 10.7731 1.01326C11.3887 0.412338 12.2174 0.0755631 13.0806 0.0754523C13.5419 0.0741545 13.9981 0.171043 14.4186 0.359591C14.6171 0.446898 14.8058 0.554775 14.9815 0.68143L14.9936 0.687866C15.038 0.72005 15.0862 0.755912 15.1306 0.790855H15.1371L33.2491 12.4019C33.738 12.6922 34.1426 13.1035 34.4236 13.5955C34.7045 14.0876 34.8521 14.6436 34.8519 15.2092Z" fill="#10CFC9"/>
<path d="M25.0621 15.2092C25.0627 15.7317 24.9368 16.2467 24.6951 16.7108C24.4534 17.1748 24.1029 17.5744 23.6732 17.8759L23.4389 18.023C20.1112 20.1564 17.3797 21.9017 15.1426 23.3361C12.9056 24.7706 11.1612 25.8897 9.78894 26.7623V3.63867L23.4602 12.4019C23.949 12.6922 24.3535 13.1035 24.6343 13.5956C24.915 14.0877 25.0624 14.6437 25.0621 15.2092Z" fill="#410099"/>
</g>
<defs>
<clipPath id="clip0_156_6244">
<rect width="110" height="32" fill="white"/>
</clipPath>
</defs>
</svg>
